PathFileType	4	(X/Y/Z)	C:/Users/beibeiliu/ov580/test_trc\sequence.33_training_dense_left.trc
DataRate	CameraRate	NumFrames	NumMarkers	Units	OrigDataRate	OrigDataStartFrame	OrigNumFrames
120	120	17	19	mm	120	187	373
Frame#	Time	ThumbCMC			ThumbMCP			ThumbIP			ThumbTip			IndexMCP			IndexPIP			IndexTip			MiddleMCP			MiddlePIP			MiddleTip			RingMCP			RingPIP			RingTip			PinkyMCP			PinkyPIP			PinkyTip			BackHand1			BackHand2			BackHand3	
		X0	Y0	Z0	X1	Y1	Z1	X2	Y2	Z2	X3	Y3	Z3	X4	Y4	Z4	X5	Y5	Z5	X6	Y6	Z6	X7	Y7	Z7	X8	Y8	Z8	X9	Y9	Z9	X10	Y10	Z10	X11	Y11	Z11	X12	Y12	Z12	X13	Y13	Z13	X14	Y14	Z14	X15	Y15	Z15	X16	Y16	Z16	X17	Y17	Z17	X18	Y18	Z18	
186	1.55	-196.077	-18.0927	18.4135	-203.256	-33.7265	-8.41629	-208.636	-38.4701	-31.5172	-220.365	-29.7145	-49.5171	-183.98	-0.19262	-42.6047	-205.176	-16.433	-57.5836	-217.823	-21.0304	-35.3706	-191.963	20.0959	-47.6452	-207.002	3.04639	-71.2661	-228.337	-11.683	-54.486	-198.81	37.0574	-42.9955	-202.407	38.2859	-67.8797	-214.022	26.3904	-88.8545	-221.139	52.6709	-25.1252	-218.282	60.2492	-39.7623	-215.611	73.4554	-56.6192	-207.025	37.9427	5.37214	-205.937	35.3228	27.8971	-188.011	14.6294	18.6912	
187	1.55833	-199.477	-16.1298	19.2685	-205.295	-32.9255	-5.25443	-210.342	-38.6469	-30.5072	-220.511	-30.7499	-51.2075	-183.759	-3.35536	-45.0291	-200.382	-17.6996	-59.5232	-218.195	-22.4659	-31.0192	-187.447	13.8645	-50.0907	-206.159	4.26775	-71.1253	-227.537	-11.0914	-55.4065	-195.342	34.0482	-41.704	-197.619	33.6926	-65.9434	-207.911	27.2229	-85.0466	-217.351	51.5132	-24.2263	-216.197	61.7147	-38.3476	-213.345	72.8221	-53.6851	-200.668	31.2554	2.36436	-206.699	34.0415	27.879	-187.817	16.1145	15.8838	
188	1.56667	-198.047	-20.2534	19.7248	-204.658	-37.6305	-6.80499	-209.388	-40.0368	-31.0512	-220.925	-29.2109	-50.6029	-181.449	-7.15395	-43.1547	-199.658	-20.7934	-58.8126	-218.505	-23.1721	-32.4106	-188.571	15.1284	-45.9331	-203.225	0.95206	-70.1749	-227.962	-15.9465	-51.1497	-195.798	34.3437	-40.2732	-197.519	34.1906	-66.4458	-207.159	23.1166	-87.0052	-212.168	49.1261	-26.2991	-213.442	58.8649	-36.4842	-211.429	71.0685	-50.3742	-199.063	34.6783	2.77176	-203.642	31.1175	32.3214	-184.89	12.7463	15.5764	
189	1.575	-197.773	-22.6843	19.3862	-205.144	-35.2726	-5.94727	-210.493	-42.8426	-28.6724	-221.245	-32.7749	-51.9787	-178.697	-12.1561	-39.8114	-199.664	-24.4428	-57.9765	-217.26	-28.2696	-33.6493	-185.121	10.217	-46.2651	-202.399	0.932595	-70.3344	-228.318	-13.5358	-52.7242	-190.76	28.9679	-40.7164	-195.735	32.4612	-68.1977	-204.551	21.5539	-88.3833	-209.328	47.937	-24.7172	-207.937	54.336	-38.1663	-204.067	68.8981	-52.7378	-195.507	28.1359	8.16367	-200.192	29.5195	33.2067	-184.612	6.15382	18.127	
190	1.58333	-196.338	-26.949	20.0293	-204.705	-40.5092	-7.79077	-209.749	-42.9774	-31.0033	-219.569	-33.6721	-51.0296	-178.859	-13.0961	-39.3574	-198.524	-20.9988	-57.9361	-216.581	-26.9352	-31.6379	-182.958	8.21002	-47.3544	-200.999	-4.34955	-70.5722	-226.55	-13.4311	-54.7198	-192.66	30.6295	-37.641	-190.84	28.1632	-64.7768	-202.876	23.2722	-87.0791	-207.197	42.0674	-21.743	-203.602	53.8505	-38.8101	-197.3	68.3112	-52.9054	-195.242	28.8869	2.71178	-198.207	28.6031	28.4877	-182.575	3.20618	21.2284	
191	1.59167	-194.346	-24.6905	18.6291	-202.795	-41.4162	-3.1182	-207.852	-43.0988	-26.0372	-216.975	-31.0528	-47.6562	-177.055	-14.7137	-41.153	-197.686	-25.0275	-57.7881	-215.151	-26.0341	-33.7409	-180.143	6.70884	-46.9357	-197.478	-0.599204	-70.2755	-224.515	-15.3927	-53.0131	-184.764	25.2317	-40.2116	-189.245	28.4125	-65.9739	-200.118	21.8197	-86.0727	-201.614	40.4911	-24.2192	-199.393	52.749	-36.4504	-193.084	65.1315	-53.9872	-190.409	27.7217	4.54794	-193.697	27.0646	28.5948	-181.657	5.69238	20.602	
192	1.6	-193.212	-29.5387	21.6975	-200.871	-43.4857	-5.34725	-205.855	-41.316	-28.48	-217.629	-32.6993	-50.9403	-173.933	-17.0127	-43.0603	-194.391	-22.4911	-57.8099	-211.763	-29.9009	-30.8826	-177.831	5.51576	-44.4544	-195.783	-1.37177	-68.6819	-221.768	-14.532	-54.2334	-184.388	26.7698	-39.4286	-185.183	27.2323	-65.8687	-194.92	16.3317	-86.8985	-200.686	42.7917	-21.1208	-196.475	53.1332	-34.616	-189.495	65.9124	-48.7873	-188.88	24.9348	7.71195	-191.366	22.1606	33.7969	-178.185	1.92808	20.5883	
193	1.60833	-191.662	-30.7078	23.942	-201.623	-41.485	-3.61647	-205.603	-41.6071	-29.8256	-215.431	-35.529	-49.9386	-172.363	-19.1877	-43.7475	-193.287	-27.4711	-56.5861	-212.029	-26.8011	-31.8888	-175.372	2.07417	-48.944	-193.231	-3.32676	-68.8448	-219.957	-14.2355	-52.3712	-181.039	26.0041	-40.211	-181.999	24.0977	-65.484	-191.4	18.8019	-83.733	-195.054	37.161	-21.2191	-191.669	51.8755	-34.7731	-183.683	65.7114	-51.1861	-185.461	24.5706	4.11908	-187.757	26.1128	32.5331	-174.666	-1.38285	19.8947	
194	1.61667	-190.556	-29.1818	19.6895	-199.742	-44.4575	-4.7163	-205.593	-43.1847	-25.665	-212.512	-31.47	-47.4813	-171.277	-19.3996	-42.2545	-194.292	-28.605	-55.7831	-209.802	-31.1753	-34.2968	-172.059	-0.512214	-46.5841	-192.605	-6.97147	-69.1077	-217.42	-14.0907	-53.6662	-178.423	22.8525	-36.2923	-178.554	23.9395	-62.4794	-190.026	14.4143	-86.8659	-191.867	37.7285	-20.6471	-185.997	49.6783	-38.5954	-178.491	61.1333	-51.9271	-182.608	22.8825	7.25569	-186.724	21.6633	32.3704	-173.564	-0.739928	22.0142	
195	1.625	-191.198	-30.7786	23.1927	-199.858	-44.0369	-2.02164	-203.089	-45.2238	-28.1747	-212.716	-36.3022	-46.8535	-168.158	-22.5347	-39.3046	-192.855	-28.9083	-56.7921	-208.225	-30.0896	-33.1487	-168.979	-1.31964	-47.4444	-186.091	-4.82659	-69.837	-215.518	-17.8043	-53.1874	-176.211	22.541	-36.7376	-175.559	23.2124	-62.7893	-185.331	15.9261	-83.9922	-186.899	37.075	-23.3229	-181.631	45.0868	-35.9766	-173.181	56.9745	-54.0081	-177.596	20.3338	6.28269	-181.574	19.2432	29.3941	-169.397	-2.83488	17.4804	
196	1.63333	-189.201	-29.7708	21.794	-198.494	-45.4686	-0.718357	-203.459	-48.1218	-25.528	-210.543	-34.8028	-51.1597	-166.152	-26.0087	-39.9482	-186.827	-29.3642	-57.5866	-207.064	-28.9551	-33.4961	-166.65	-2.89509	-44.3131	-186.528	-7.58246	-69.8533	-213.371	-21.542	-55.5403	-170.738	19.1556	-38.2159	-170.556	15.2412	-65.7339	-181.263	10.258	-85.0497	-183.148	34.1485	-23.1569	-176.849	44.801	-37.4312	-169.908	56.4017	-52.3524	-175.853	20.1088	6.10703	-178.401	20.6322	31.4984	-168.449	-7.65683	21.6909	
197	1.64167	-186.902	-35.2199	22.0448	-198.044	-46.801	-0.827551	-201.039	-46.1878	-27.7649	-209.152	-37.6326	-49.8539	-164.656	-28.8042	-42.0332	-188.641	-31.5862	-56.5708	-205.019	-32.5012	-34.5533	-164.39	-3.09647	-45.0832	-178.661	-12.4926	-69.5798	-211.048	-21.5491	-57.7152	-167.337	15.8738	-37.5708	-167.021	13.9337	-63.2269	-179.002	11.859	-84.1062	-179.247	33.23	-23.1559	-174.06	43.622	-37.776	-164.896	53.1039	-49.1609	-172.66	15.9976	5.39187	-178.982	17.7177	33.2977	-166.817	-6.97271	18.1872	
198	1.65	-187.395	-37.1983	24.983	-196.268	-46.0163	-2.34753	-200.731	-48.8735	-24.763	-205.978	-37.4323	-49.2345	-163.279	-28.3622	-38.1899	-184.374	-36.2371	-56.9529	-203.874	-31.6119	-34.2516	-161.821	-4.8555	-48.208	-180.801	-10.528	-70.2348	-208.282	-21.3574	-58.4888	-166.259	17.2196	-35.6559	-165.786	17.0788	-64.2842	-173.828	8.99682	-82.8064	-178.808	32.5587	-20.1741	-171.906	43.331	-35.3646	-163.414	52.79	-48.1061	-170.052	16.4474	4.09716	-176.174	15.1145	31.5767	-165.411	-8.68834	22.2875	
199	1.65833	-185.107	-33.2207	21.3268	-192.693	-46.1972	-4.36483	-197.102	-48.5881	-29.9199	-203.796	-38.4901	-46.9344	-161.187	-26.8632	-41.3101	-182.136	-33.5964	-56.2797	-201.706	-34.4994	-32.5562	-158.59	-8.04039	-46.0991	-174.873	-11.0928	-68.4489	-205.295	-17.8451	-60.3658	-163.235	14.0335	-35.4476	-162.764	13.7543	-61.2967	-173.899	9.32071	-84.0177	-174.423	35.7437	-22.9684	-169.262	40.3237	-34.9338	-162.945	52.9994	-48.4716	-168.914	11.6966	5.45655	-174.186	15.5735	32.529	-161.097	-13.0651	19.6917	
200	1.66667	-182.599	-35.3179	21.4385	-190.687	-48.0037	-4.19427	-195.622	-50.7972	-28.5096	-200.929	-36.2087	-46.7149	-158.92	-26.8543	-41.7976	-178.749	-35.3892	-56.4152	-199.552	-36.1685	-31.7125	-158.345	-3.79216	-41.8169	-174.725	-15.1678	-69.6989	-203.451	-17.3997	-58.7447	-162.186	12.0031	-32.8073	-160.424	15.3625	-59.1668	-170.794	7.31304	-82.9192	-174.137	31.1194	-20.5378	-167.497	41.1113	-35.4257	-158.521	54.4311	-49.438	-169.701	14.7951	9.49671	-174.111	17.0847	33.9349	-162.519	-7.56299	24.2532	
201	1.675	-181.191	-36.9927	21.8576	-191.437	-52.9522	-1.12429	-193.919	-51.4032	-24.4891	-200.566	-39.6857	-46.3525	-157.752	-25.7358	-37.9908	-180.075	-33.4205	-55.1537	-196.575	-34.8728	-33.878	-154.837	-7.51845	-42.4409	-173.433	-13.9456	-68.4413	-201.466	-19.3063	-59.6775	-159.951	17.2485	-35.4709	-160.652	16.7324	-62.7002	-171.032	9.60848	-84.9506	-172.725	33.82	-20.3109	-165.286	45.1043	-36.3504	-158.857	53.1013	-49.0554	-166.527	14.9559	6.30114	-172.7	13.9661	35.8498	-160.625	-8.9673	25.3329	
202	1.68333	-182.471	-36.4559	26.2565	-187.829	-46.1756	-3.44025	-191.778	-48.9746	-25.7197	-199.646	-40.8436	-48.2591	-155.594	-28.9533	-34.7863	-176.877	-36.5477	-55.6195	-195.385	-33.2813	-34.0748	-154.267	-8.26731	-40.0684	-170.98	-15.9866	-68.7317	-199.743	-17.0303	-59.5473	-158.161	11.8944	-34.2331	-156.781	13.0603	-58.0121	-166.938	8.58047	-80.5581	-170.313	33.442	-22.7116	-165.523	41.4415	-33.0653	-156.669	52.9915	-47.2511	-165.799	12.0016	6.70216	-169.322	13.398	34.4294	-160.276	-9.73772	20.8444	
